# xmcd
#
# Track frame offsets:
#	150
#	15622
#	31116
#	47137
#	64516
#	79785
#	97770
#	115660
#	131027
#	149552
#	165044
#	181347
#	200313
#	217716
#	236709
#	251582
#	267315
#	282806
#	301093
#	316844
#	335136
#	338198
#
# Disc length: 4572 seconds
#
# Revision: 1
# Processed by: cddbd v1.5.2PL0 Copyright (c) Steve Scherf et al.
# Submitted via: audiograbber 1.83.01
#
DISCID=2711da16
DTITLE=Various - CDX Volume 541 (March 12, 2012)
DYEAR=2012
DGENRE=Country
TTITLE0=Toby Keith - Beers Ago
TTITLE1=Cledus T. Judd - Double D Cups
TTITLE2=Kristen Kelly - Ex-Old Man [Radio Edit]
TTITLE3=Eric Paslay - If The Fish Don't Bite
TTITLE4=Jon Pardi - Missin' You Crazy
TTITLE5=David Nail - The Sound Of A Million Dreams [Radio Edit]
TTITLE6=David Frizzell - Say Hello To Heaven
TTITLE7=Glen Templeton - Sing That Song Again
TTITLE8=Michelle Turley - Orange Blossoms In Phoenix
TTITLE9=Brad Wolf - Too Many Mondays, Not Enough Saturday Nights
TTITLE10=Brandon Bolin - Angel Missing
TTITLE11=Jake McVey - Best Days Of Our Lives 
TTITLE12=Family Reunion - Blue Collar King 
TTITLE13=Deborah Berg - Goin' Nowhere 
TTITLE14=Marty McIntosh - Looking For Reasons
TTITLE15=Brandon Holland - Man In The Moon
TTITLE16=Stephen Cochran Project - Pieces
TTITLE17=Ben Brand - So Am I 
TTITLE18=Leverton Brothers - Take Me Back to Alabam
TTITLE19=Julie Ingram - Thank God 
TTITLE20=David Frizzell - MADD PSA (:30)
TTITLE21=David Frizzell - MADD PSA (:60)
EXTD=
EXTT0=
EXTT1=
EXTT2=
EXTT3=
EXTT4=
EXTT5=
EXTT6=
EXTT7=
EXTT8=
EXTT9=
EXTT10=
EXTT11=
EXTT12=
EXTT13=
EXTT14=
EXTT15=
EXTT16=
EXTT17=
EXTT18=
EXTT19=
EXTT20=
EXTT21=
PLAYORDER=
